<?xml version="1.0" encoding="UTF-8"?>
<svg xmlns="http://www.w3.org/2000/svg" width="37" height="35" viewBox="0 0 37 35" fill="none">
  <path d="M31.3371 18.2595H31.4175V12.2426L37 1.39193L36.0524 0.889543C33.1117 -0.749163 29.1012 0.495159 27.6048 3.51081L26.6303 5.37544L23.7727 1.65312H23.2374C21.5804 1.64574 20.115 2.606 19.4406 4.11672C18.7154 2.81723 17.5284 1.83685 16.0887 1.37253L15.266 1.10722L6.69483 15.4725H0V31.9775H4.94906L12.8396 34.837H21.98C25.7819 34.837 28.966 32.1432 29.7251 28.5641C31.7266 27.8113 33.1549 25.8779 33.1549 23.6164V21.9888C33.1549 20.4767 32.4427 19.1286 31.3371 18.2595ZM29.5295 4.51653C30.3356 2.90721 32.283 2.01486 34.0227 2.43175L30.1498 9.95965L28.0884 7.27447L29.5295 4.51653ZM19.4144 9.94901C19.6832 9.47963 19.8834 8.98108 20.0139 8.47022L22.3687 12.0234V12.9026H17.6573L19.4144 9.94901ZM27.7256 26.9197C27.7256 30.0879 25.1482 32.6653 21.98 32.6653H13.221L5.33041 29.8058H2.17172V17.6442H7.92808L16.1952 3.78843C17.9059 4.76092 18.55 7.14648 17.5417 8.8494L13.8383 15.0743H24.5404V11.369L21.5829 6.90622C20.813 5.80038 21.4517 4.18447 22.7474 3.88384L29.2458 12.3484V17.3209C28.8283 17.1801 23.8374 17.2689 23.281 17.2461C21.2212 17.2461 19.5455 18.9219 19.5455 20.9817V23.0424C18.8646 23.9408 18.7214 25.2874 19.1069 26.358C16.1475 24.9718 13.3683 25.1177 10.2071 25.1366V27.3084C13.8163 27.2843 16.4587 27.1007 19.6811 29.1181H24.83V26.9464H22.9478C21.91 26.9464 21.0657 26.1021 21.0657 25.0642C21.0657 24.3458 21.6502 23.7612 22.3687 23.7612H26.1617C27.024 23.7612 27.7256 24.4628 27.7256 25.3251V26.9197ZM30.9832 23.6164C30.9832 24.5591 30.5614 25.4046 29.8973 25.9759V25.3251C29.8973 23.2653 28.2216 21.5894 26.1617 21.5894C25.7039 21.6101 22.0809 21.5316 21.7172 21.6515V20.9816C21.7172 20.1192 22.4187 19.4176 23.2811 19.4176H28.4122C29.8299 19.4176 30.9833 20.571 30.9833 21.9887V23.6164H30.9832Z" fill="#004737"></path>
</svg>
