<?xml version="1.0" encoding="UTF-8"?>
<svg xmlns="http://www.w3.org/2000/svg" width="138" height="36" viewBox="0 0 138 36" fill="none">
  <g clip-path="url(#clip0_501_9)">
    <path d="M47.5079 9.48828H55.6459C57.7086 9.48828 59.3119 10.0343 60.4559 11.1263C61.6173 12.201 62.1979 13.6656 62.1979 15.5203C62.1979 17.3576 61.6173 18.8223 60.4559 19.9143C59.3119 20.989 57.7086 21.5263 55.6459 21.5263H51.0179V28.0003H47.5079V9.48828ZM51.0179 18.5103H55.4899C56.5126 18.5103 57.2926 18.259 57.8299 17.7563C58.3846 17.2363 58.6619 16.491 58.6619 15.5203C58.6619 14.5496 58.3846 13.8043 57.8299 13.2843C57.2926 12.7643 56.5126 12.5043 55.4899 12.5043H51.0179V18.5103ZM75.126 28.0003H71.85C71.694 27.723 71.5727 27.177 71.486 26.3623C70.5847 27.6623 69.146 28.3123 67.17 28.3123C65.6967 28.3123 64.518 27.957 63.634 27.2463C62.7674 26.5356 62.334 25.5476 62.334 24.2823C62.334 21.8383 64.05 20.443 67.482 20.0963L69.51 19.9143C70.186 19.8276 70.6714 19.6716 70.966 19.4463C71.2607 19.2036 71.408 18.8483 71.408 18.3803C71.408 17.8083 71.2174 17.3923 70.836 17.1323C70.472 16.855 69.848 16.7163 68.964 16.7163C68.0107 16.7163 67.326 16.881 66.91 17.2103C66.494 17.5223 66.2514 18.0683 66.182 18.8483H62.958C63.1487 15.7976 65.1594 14.2723 68.99 14.2723C72.7167 14.2723 74.58 15.6156 74.58 18.3023V25.4523C74.58 26.631 74.762 27.4803 75.126 28.0003ZM67.95 25.9723C68.9727 25.9723 69.8047 25.695 70.446 25.1403C71.0874 24.5683 71.408 23.7536 71.408 22.6963V21.4743C71.096 21.7516 70.5847 21.9336 69.874 22.0203L68.106 22.2283C67.2394 22.3323 66.6154 22.5403 66.234 22.8523C65.87 23.147 65.688 23.5803 65.688 24.1523C65.688 24.7243 65.8787 25.175 66.26 25.5043C66.6587 25.8163 67.222 25.9723 67.95 25.9723ZM80.0175 28.0003H76.7415V9.48828H80.0175V28.0003ZM97.7115 14.2723C99.1848 14.2723 100.329 14.7056 101.144 15.5723C101.976 16.439 102.392 17.6263 102.392 19.1343V28.0003H99.1155V19.6543C99.1155 17.9556 98.3442 17.1063 96.8015 17.1063C95.9695 17.1063 95.2935 17.4096 94.7735 18.0163C94.2708 18.6056 94.0195 19.4723 94.0195 20.6163V28.0003H90.7695V19.6543C90.7695 17.9556 89.9895 17.1063 88.4295 17.1063C87.6148 17.1063 86.9475 17.4096 86.4275 18.0163C85.9248 18.6056 85.6735 19.4723 85.6735 20.6163V28.0003H82.3975V14.5843H85.5695V16.5083C86.4882 15.0176 87.7622 14.2723 89.3915 14.2723C91.4368 14.2723 92.8235 15.1043 93.5515 16.7683C94.5568 15.1043 95.9435 14.2723 97.7115 14.2723ZM117.448 21.5263V22.3063H107.412C107.533 23.4503 107.889 24.317 108.478 24.9063C109.085 25.4783 109.891 25.7643 110.896 25.7643C112.387 25.7643 113.409 25.123 113.964 23.8403H117.11C116.763 25.2096 116.035 26.3016 114.926 27.1163C113.817 27.9136 112.465 28.3123 110.87 28.3123C108.877 28.3123 107.265 27.671 106.034 26.3883C104.803 25.1056 104.188 23.407 104.188 21.2923C104.188 19.1776 104.795 17.479 106.008 16.1963C107.239 14.9136 108.842 14.2723 110.818 14.2723C112.846 14.2723 114.458 14.9396 115.654 16.2743C116.85 17.609 117.448 19.3596 117.448 21.5263ZM110.792 16.8203C108.868 16.8203 107.75 17.8863 107.438 20.0183H114.172C114.033 19.0303 113.669 18.2503 113.08 17.6783C112.491 17.1063 111.728 16.8203 110.792 16.8203ZM122.579 28.0003H119.303V9.48828H122.579V28.0003ZM137.023 28.0003H133.747C133.591 27.723 133.47 27.177 133.383 26.3623C132.482 27.6623 131.043 28.3123 129.067 28.3123C127.594 28.3123 126.415 27.957 125.531 27.2463C124.665 26.5356 124.231 25.5476 124.231 24.2823C124.231 21.8383 125.947 20.443 129.379 20.0963L131.407 19.9143C132.083 19.8276 132.569 19.6716 132.863 19.4463C133.158 19.2036 133.305 18.8483 133.305 18.3803C133.305 17.8083 133.115 17.3923 132.733 17.1323C132.369 16.855 131.745 16.7163 130.861 16.7163C129.908 16.7163 129.223 16.881 128.807 17.2103C128.391 17.5223 128.149 18.0683 128.079 18.8483H124.855C125.046 15.7976 127.057 14.2723 130.887 14.2723C134.614 14.2723 136.477 15.6156 136.477 18.3023V25.4523C136.477 26.631 136.659 27.4803 137.023 28.0003ZM129.847 25.9723C130.87 25.9723 131.702 25.695 132.343 25.1403C132.985 24.5683 133.305 23.7536 133.305 22.6963V21.4743C132.993 21.7516 132.482 21.9336 131.771 22.0203L130.003 22.2283C129.137 22.3323 128.513 22.5403 128.131 22.8523C127.767 23.147 127.585 23.5803 127.585 24.1523C127.585 24.7243 127.776 25.175 128.157 25.5043C128.556 25.8163 129.119 25.9723 129.847 25.9723Z" fill="#005643"/>
    <path d="M18 36C27.9411 36 36 27.9411 36 18C36 8.05887 27.9411 0 18 0C8.05887 0 0 8.05887 0 18C0 27.9411 8.05887 36 18 36Z" fill="#35EF8B"/>
    <path d="M18 26.9472C18.046 26.914 18.0885 26.8772 18.1345 26.8515C19.6917 25.9681 20.5729 24.5657 20.9941 22.8136C21.1923 21.9928 21.2808 21.161 21.302 20.3144C21.3055 20.1341 21.3162 19.9537 21.3268 19.7586C20.5659 19.7586 19.7908 19.7586 18.9733 19.7586C20.3217 17.9587 21.6488 16.1919 22.9902 14.3994C24.3244 16.1809 25.6516 17.9477 27 19.7439C26.2108 19.7439 25.4534 19.7439 24.6783 19.7439C24.6677 20.0052 24.6571 20.2408 24.6429 20.48C24.5615 21.956 24.1545 23.3179 23.291 24.5031C22.3637 25.7693 21.1286 26.5459 19.628 26.8441C19.1467 26.9398 18.6477 26.9508 18.1557 26.9987C18.1097 27.0024 18.0602 26.9913 18.0106 26.984C18.0106 26.9766 18.0035 26.9619 18 26.9472Z" fill="#005643"/>
    <path d="M13.9102 21.6C12.5699 19.8112 11.2473 18.0481 9.89996 16.2483C10.6886 16.2483 11.4489 16.2483 12.2198 16.2483C12.2304 16.0017 12.241 15.7735 12.2552 15.5489C12.3648 13.6239 12.9907 11.9345 14.3876 10.6168C15.2646 9.79235 16.3043 9.3065 17.4677 9.1151C17.8709 9.04885 18.2811 9.03413 18.6913 9.001C18.755 8.99732 18.8186 9.00468 18.8858 9.00836C18.8894 9.02309 18.8964 9.03781 18.9 9.05253C18.7974 9.11879 18.6984 9.18872 18.5958 9.25129C17.8285 9.71874 17.199 10.3297 16.7286 11.1137C16.2583 11.9014 15.9683 12.7627 15.7986 13.6681C15.6571 14.4263 15.5899 15.1956 15.5935 15.9685C15.5935 16.0532 15.5723 16.1415 15.5581 16.2409C16.3361 16.2409 17.1106 16.2409 17.9275 16.2409C16.573 18.0408 15.2505 19.8112 13.9102 21.6Z" fill="#005643"/>
  </g>
  <defs>
    <clipPath id="clip0_501_9">
      <rect width="138" height="36" fill="white"/>
    </clipPath>
  </defs>
</svg>