<?xml version="1.0" encoding="UTF-8"?>
<svg xmlns="http://www.w3.org/2000/svg" width="32" height="32" viewBox="0 0 32 32" fill="none">
  <path d="M22.0139 0H3.8125V32H28.1884V6.1745L22.0139 0ZM24.9873 5.625L22.5636 5.62475L22.5633 3.20112L24.9873 5.625ZM5.6875 30.125V1.875H20.6882L20.6889 7.4995L26.3134 7.50019V30.125H5.6875Z" fill="#004737"></path>
  <path d="M19.1006 10.501V12.376H20.9266L16.5628 16.7472L12.4789 12.6632L7.8457 17.2964L9.17158 18.6222L12.4789 15.3149L16.564 19.4L22.2499 13.7044V15.5478H24.1249V10.501H19.1006Z" fill="#004737"></path>
  <path d="M24.1946 21.3154H7.86523V23.1904H24.1946V21.3154Z" fill="#004737"></path>
  <path d="M24.1946 25.0664H7.86523V26.9414H24.1946V25.0664Z" fill="#004737"></path>
</svg>
