<?xml version="1.0" encoding="UTF-8"?>
<svg xmlns="http://www.w3.org/2000/svg" width="37" height="37" viewBox="0 0 37 37" fill="none">
  <path d="M36.3965 17.9893C35.8585 17.1755 35.035 16.6241 34.0775 16.4367C33.12 16.2492 32.1495 16.4494 31.3446 17.0002L25.2364 21.1779C24.676 20.3201 23.708 19.7517 22.6091 19.7517H18.7388C18.0836 19.1113 16.6169 18.1113 13.848 18.1113C10.3205 18.1113 8.80484 19.6045 8.49779 19.9551L7.27036 21.2098L6.61151 19.9478L0 23.3994L6.38749 35.6341L12.9989 32.1825L12.3145 30.8716H24.3362L35.4811 22.9208C37.0721 21.7857 37.4741 19.6197 36.3965 17.9893ZM7.30772 32.703L2.93109 24.3197L5.69128 22.8788L10.0679 31.262L7.30772 32.703ZM34.2196 21.1523L23.6408 28.6992H11.1805L8.32789 23.2352L10.076 21.4482L10.1001 21.4329L10.1408 21.3766C10.255 21.2557 11.2539 20.2836 13.848 20.2836C16.3567 20.2836 17.2316 21.297 17.3372 21.4324L17.6106 21.9239H22.6091C23.1408 21.9239 23.5734 22.3565 23.5734 22.8882C23.5734 23.42 23.1408 23.8525 22.6091 23.8525H16.0849V26.0249H22.6091C24.1283 26.0249 25.3983 24.9392 25.6849 23.503L32.5712 18.7933C32.892 18.5737 33.279 18.4941 33.6602 18.5686C34.0417 18.6433 34.37 18.863 34.5843 19.1873C35.0136 19.8369 34.8536 20.7 34.2196 21.1523Z" fill="#f0bd1a"></path>
  <path d="M27.287 1.36621H11.7156C10.2627 1.36621 9.08069 2.54819 9.08069 4.00109V13.2413C9.08069 14.6942 10.2627 15.8762 11.7156 15.8762H27.2871C28.7399 15.8762 29.9219 14.6942 29.9219 13.2413V4.00109C29.9219 2.54826 28.7399 1.36621 27.287 1.36621ZM27.7495 13.2413C27.7494 13.4964 27.542 13.7039 27.287 13.7039H11.7156C11.4605 13.7039 11.253 13.4965 11.253 13.2413V8.08417H27.7495V13.2413ZM27.7495 5.91186H11.253V4.00116C11.253 3.74613 11.4604 3.53859 11.7156 3.53859H27.2871C27.542 3.53859 27.7496 3.74613 27.7496 4.00116L27.7495 5.91186Z" fill="#f0bd1a"></path>
  <path d="M15.9598 10.2197H12.5563V12.3918H15.9598V10.2197Z" fill="#f0bd1a"></path>
</svg>
