<?xml version="1.0" encoding="UTF-8"?>
<svg xmlns="http://www.w3.org/2000/svg" width="37" height="37" viewBox="0 0 37 37" fill="none">
  <g clip-path="url(#clip0_125_61)">
    <path d="M21.7929 29.7715H32.5307V31.9392H21.7929V29.7715Z" fill="#004737"></path>
    <path d="M33.6146 21.8781C33.6146 21.121 33.4825 20.3946 33.2419 19.7193H33.3774C34.8809 19.7193 36.1646 18.8531 36.7275 17.4589C37.2903 16.0646 36.9677 14.55 35.8856 13.5062L29.3379 7.19008H16.4304L15.7226 6.48226L16.7531 5.45181L11.3031 0.00195312L0 11.3051L5.44993 16.755L6.0993 16.1056L9.36767 19.3739C10.8164 21.0404 12.9085 21.9953 15.1147 21.9953C16.9077 21.9953 18.6253 21.3646 19.9834 20.234C20.1774 20.0725 20.3641 19.9008 20.5426 19.7192H21.0815C20.8409 20.3946 20.7091 21.1211 20.7091 21.878C20.7091 22.8949 20.9464 23.8572 21.3672 24.7135H17.3284V36.9971H36.9952V24.7135H32.9565C33.3774 23.8572 33.6146 22.8949 33.6146 21.8781ZM13.6875 5.45189L8.83637 10.303L6.45198 7.91864L11.3031 3.06757L13.6875 5.45189ZM4.91921 9.45142L7.3036 11.8358L5.44993 13.6895L3.06555 11.3051L4.91921 9.45142ZM19.5701 17.5515L19.2458 17.9288C18.2084 19.1355 16.7027 19.8276 15.1147 19.8276C13.5268 19.8276 12.0211 19.1355 10.9838 17.9288L10.9571 17.8978L7.63207 14.5729L14.1898 8.01511L15.5326 9.35784H28.4627L34.3806 15.0663C35.0317 15.6944 34.803 16.4353 34.7174 16.6474C34.6317 16.8595 34.2821 17.5515 33.3773 17.5515H31.9434C31.392 16.9429 30.7266 16.4399 29.981 16.0761C29.9171 14.1895 28.3635 12.6742 26.4616 12.6742H20.2777V14.8419H26.4616C27.2086 14.8419 27.8164 15.4496 27.8164 16.1967C27.8164 16.9437 27.2086 17.5515 26.4616 17.5515H19.5701ZM22.8767 21.8781C22.8767 21.0913 23.0904 20.3536 23.462 19.7193H26.4616C27.6599 19.7193 28.7198 19.1174 29.3564 18.2004C30.6072 18.9495 31.447 20.317 31.447 21.8781C31.447 22.9649 31.0396 23.9577 30.3703 24.7136H23.9535C23.2841 23.9577 22.8767 22.9649 22.8767 21.8781ZM34.8275 34.8295H19.4961V26.8813H34.8275V34.8295Z" fill="#004737"></path>
  </g>
  <defs>
    <clipPath id="clip0_125_61">
      <rect width="37" height="37" fill="white"></rect>
    </clipPath>
  </defs>
</svg>
