<?xml version="1.0" encoding="UTF-8"?>
<svg xmlns="http://www.w3.org/2000/svg" width="32" height="32" viewBox="0 0 32 32" fill="none">
  <g clip-path="url(#clip0_368_6835)">
    <path d="M1.88235 21.6475H0V32.0004H10.3529V30.118H1.88235V21.6475Z" fill="#004737"></path>
    <path d="M1.88235 1.88235H10.3529V0H0V10.3529H1.88235V1.88235Z" fill="#004737"></path>
    <path d="M21.6465 0V1.88235H30.1171V10.3529H31.9994V0H21.6465Z" fill="#004737"></path>
    <path d="M30.1171 30.118H21.6465V32.0004H31.9994V21.6475H30.1171V30.118Z" fill="#004737"></path>
    <path d="M6.50835 22.9648L8.23321 22.2111C7.76583 21.1414 7.52884 20.0015 7.52884 18.8232H5.64648C5.64648 20.2625 5.93643 21.6559 6.50835 22.9648Z" fill="#004737"></path>
    <path d="M9.22363 23.9062L7.71875 25.037C9.62288 27.5714 12.6405 29.1766 16.0006 29.1766V27.2942C13.3115 27.2942 10.8413 26.0593 9.22363 23.9062Z" fill="#004737"></path>
    <path d="M24.9668 24.0012L23.3375 23.0586C22.2831 24.8812 20.5746 26.2683 18.541 26.907L19.1051 28.7028C21.605 27.9176 23.6858 26.2156 24.9668 24.0012Z" fill="#004737"></path>
    <path d="M24.4702 18.8233C24.4702 19.394 24.4132 19.9644 24.3008 20.5185L26.1455 20.8928C26.2828 20.2158 26.3525 19.5195 26.3525 18.8233V15.0586H24.4702V18.8233Z" fill="#004737"></path>
    <path d="M24.9673 7.99902L23.3379 8.94152C24.0789 10.2225 24.4706 11.6868 24.4706 13.1762H26.3529C26.3529 11.3563 25.8737 9.56602 24.9673 7.99902Z" fill="#004737"></path>
    <path d="M21.9293 7.12693L23.2471 5.7828C21.2821 3.85609 18.6776 2.82324 16 2.82324V4.7056C18.1735 4.7056 20.3074 5.53684 21.9293 7.12693Z" fill="#004737"></path>
    <path d="M6.68359 8.65804L8.37671 9.48057C9.42003 7.3333 11.2973 5.77283 13.4593 5.09368L12.8952 3.29785C10.2249 4.13663 7.94684 6.05801 6.68359 8.65804Z" fill="#004737"></path>
    <path d="M7.52884 13.1761C7.52884 12.6052 7.58587 12.035 7.69831 11.481L5.85361 11.1064C5.71613 11.7835 5.64648 12.4797 5.64648 13.1761V16.9408H7.52884V13.1761Z" fill="#004737"></path>
    <path d="M9.41211 15.0586V18.8233C9.41211 21.1678 10.674 23.3543 12.7052 24.5293L13.6478 22.9C12.1962 22.0603 11.2945 20.4982 11.2945 18.8233V15.0586H9.41211Z" fill="#004737"></path>
    <path d="M22.5882 18.8232H20.7059C20.7059 21.4181 18.5948 23.5291 16 23.5291V25.4115C19.6328 25.4115 22.5882 22.456 22.5882 18.8232Z" fill="#004737"></path>
    <path d="M22.5873 16.9414V13.1767C22.5873 10.8322 21.3254 8.64573 19.2942 7.4707L18.3516 9.1C19.8032 9.93979 20.7049 11.5019 20.7049 13.1767V16.9414H22.5873Z" fill="#004737"></path>
    <path d="M9.41211 13.1761H11.2945C11.2945 10.5813 13.4055 8.47024 16.0003 8.47024V6.58789C12.3675 6.58789 9.41211 9.54337 9.41211 13.1761Z" fill="#004737"></path>
    <path d="M18.8235 13.1761C18.8235 11.6192 17.557 10.3525 16 10.3525V12.2349C16.519 12.2349 16.9412 12.6571 16.9412 13.1761V14.1172H18.8235V13.1761Z" fill="#004737"></path>
    <path d="M13.1758 13.1768H15.0581V16.9415H13.1758V13.1768Z" fill="#004737"></path>
    <path d="M15.9993 21.6471C17.5563 21.6471 18.8228 20.3805 18.8228 18.8235V16H16.9405V18.8235C16.9405 19.3426 16.5183 19.7647 15.9993 19.7647C15.4803 19.7647 15.0581 19.3426 15.0581 18.8235H13.1758C13.1758 20.3805 14.4424 21.6471 15.9993 21.6471Z" fill="#004737"></path>
  </g>
  <defs>
    <clipPath id="clip0_368_6835">
      <rect width="32" height="32" fill="white"></rect>
    </clipPath>
  </defs>
</svg>
