<?xml version="1.0" encoding="UTF-8"?>
<svg xmlns="http://www.w3.org/2000/svg" width="32" height="32" viewBox="0 0 32 32" fill="none">
  <path d="M20.2757 20.2746L18.876 18.875L15.1789 22.5721L12.6984 20.0917L11.2988 21.4913L15.1789 25.3714L20.2757 20.2746Z" fill="#8c6e05"></path>
  <path d="M22.7635 11.5464V6.76289C22.7635 3.0338 19.7297 0 16.0006 0C12.2715 0 9.2377 3.0338 9.2377 6.76289V11.5464H4.61914V32H27.382V11.5464H22.7635ZM11.2171 6.76289C11.2171 4.12523 13.3629 1.97938 16.0006 1.97938C18.6382 1.97938 20.7841 4.12523 20.7841 6.76289V11.5464H11.2171V6.76289ZM25.4026 30.0206H6.59852V13.5258H25.4026V30.0206Z" fill="#8c6e05"></path>
</svg>
