<?xml version="1.0" encoding="UTF-8"?>
<svg xmlns="http://www.w3.org/2000/svg" width="47" height="36" viewBox="0 0 47 36" fill="none">
  <path d="M42.1598 3.25401C44.8212 6.0793 46.2503 9.25016 46.2503 14.3902C46.2503 23.4303 39.9043 31.5348 30.6712 35.5402L28.3651 31.9814C36.9813 27.3195 38.6651 21.2727 39.3383 17.46C37.951 18.1774 36.135 18.4295 34.3548 18.2647C29.6934 17.8325 26.0197 14.0058 26.0197 9.25016C26.0197 4.25658 30.0677 0.208496 35.0613 0.208496C37.8335 0.208496 40.4843 1.47549 42.1598 3.25401ZM16.3265 3.25401C18.9878 6.0793 20.4169 9.25016 20.4169 14.3902C20.4169 23.4303 14.0709 31.5348 4.83791 35.5402L2.53179 31.9814C11.1478 27.3195 12.8318 21.2727 13.5049 17.46C12.1176 18.1774 10.3017 18.4295 8.52143 18.2647C3.86014 17.8325 0.186462 14.0058 0.186462 9.25016C0.186462 4.25658 4.23455 0.208496 9.22813 0.208496C12.0002 0.208496 14.651 1.47549 16.3265 3.25401Z" fill="#666666"></path>
</svg>
